<?xml version="1.0" encoding="UTF-8"?>
<svg width="18px" height="18px" viewBox="0 0 18 18" version="1.1" xmlns="http://www.w3.org/2000/svg" xmlns:xlink="http://www.w3.org/1999/xlink">
    <title>add_group_icon</title>
    <g id="Page-1" stroke="none" stroke-width="1" fill="none" fill-rule="evenodd">
        <g id="08-stores-single" transform="translate(-1146.000000, -121.000000)">
            <g id="add_group_icon" transform="translate(1146.000000, 121.000000)">
                <g id="add-stores-btn" fill="#FFFFFF" fill-rule="nonzero">
                    <g id="text">
                        <path d="M7.69230769,3.07692308 L7.69230769,0 L0,0 L0,13.8461538 L15.3846154,13.8461538 L15.3846154,3.07692308 L7.69230769,3.07692308 Z M3.07692308,12.3076923 L1.53846154,12.3076923 L1.53846154,10.7692308 L3.07692308,10.7692308 L3.07692308,12.3076923 Z M3.07692308,9.23076923 L1.53846154,9.23076923 L1.53846154,7.69230769 L3.07692308,7.69230769 L3.07692308,9.23076923 Z M3.07692308,6.15384615 L1.53846154,6.15384615 L1.53846154,4.61538462 L3.07692308,4.61538462 L3.07692308,6.15384615 Z M3.07692308,3.07692308 L1.53846154,3.07692308 L1.53846154,1.53846154 L3.07692308,1.53846154 L3.07692308,3.07692308 Z M6.15384615,12.3076923 L4.61538462,12.3076923 L4.61538462,10.7692308 L6.15384615,10.7692308 L6.15384615,12.3076923 Z M6.15384615,9.23076923 L4.61538462,9.23076923 L4.61538462,7.69230769 L6.15384615,7.69230769 L6.15384615,9.23076923 Z M6.15384615,6.15384615 L4.61538462,6.15384615 L4.61538462,4.61538462 L6.15384615,4.61538462 L6.15384615,6.15384615 Z M6.15384615,3.07692308 L4.61538462,3.07692308 L4.61538462,1.53846154 L6.15384615,1.53846154 L6.15384615,3.07692308 Z M13.8461538,12.3076923 L7.69230769,12.3076923 L7.69230769,10.7692308 L9.23076923,10.7692308 L9.23076923,9.23076923 L7.69230769,9.23076923 L7.69230769,7.69230769 L9.23076923,7.69230769 L9.23076923,6.15384615 L7.69230769,6.15384615 L7.69230769,4.61538462 L13.8461538,4.61538462 L13.8461538,12.3076923 Z M12.3076923,6.15384615 L10.7692308,6.15384615 L10.7692308,7.69230769 L12.3076923,7.69230769 L12.3076923,6.15384615 Z M12.3076923,9.23076923 L10.7692308,9.23076923 L10.7692308,10.7692308 L12.3076923,10.7692308 L12.3076923,9.23076923 Z" id="Shape"></path>
                    </g>
                </g>
                <circle id="Oval" stroke="#FFFFFF" stroke-width="1.5" fill="#DB0D15" cx="11.7692308" cy="12.4615385" r="4.78846154"></circle>
                <polygon id="Path" fill="#FFFFFF" fill-rule="nonzero" points="14.5384615 12.8571429 12.1648352 12.8571429 12.1648352 15.2307692 11.3736264 15.2307692 11.3736264 12.8571429 9 12.8571429 9 12.0659341 11.3736264 12.0659341 11.3736264 9.69230769 12.1648352 9.69230769 12.1648352 12.0659341 14.5384615 12.0659341"></polygon>
            </g>
        </g>
    </g>
</svg>