<?xml version="1.0" encoding="UTF-8"?>
<svg width="24px" height="18px" viewBox="0 0 24 18" version="1.1" xmlns="http://www.w3.org/2000/svg" xmlns:xlink="http://www.w3.org/1999/xlink">
    <title>contact_person_icon</title>
    <g id="Page-1" stroke="none" stroke-width="1" fill="none" fill-rule="evenodd">
        <g id="12-Store-General-View-basic--layout" transform="translate(-225.000000, -972.000000)" fill="#211E1B" fill-rule="nonzero">
            <path d="M247,972 L227,972 C225.9,972 225,972.9 225,974 L225,988 C225,989.1 225.9,990 227,990 L247,990 C248.1,990 248.99,989.1 248.99,988 L249,974 C249,972.9 248.1,972 247,972 Z M247,988 L227,988 L227,974 L247,974 L247,988 Z M244.01,986.99 L246,985 L244.49,983 L242.85,983 C242.63,982.37 242.5,981.7 242.5,981 C242.5,980.3 242.63,979.63 242.85,979 L244.49,979 L246,977 L244.01,975.01 C242.7,975.99 241.73,977.38 241.28,979 C241.1,979.64 241,980.31 241,981 C241,981.69 241.1,982.36 241.28,983 C241.73,984.61 242.7,986.01 244.01,986.99 L244.01,986.99 Z M234,981 C235.65,981 237,979.65 237,978 C237,976.35 235.65,975 234,975 C232.35,975 231,976.35 231,978 C231,979.65 232.35,981 234,981 Z M234,977 C234.55,977 235,977.45 235,978 C235,978.55 234.55,979 234,979 C233.45,979 233,978.55 233,978 C233,977.45 233.45,977 234,977 Z M240,985.59 C240,983.09 236.03,982.01 234,982.01 C231.97,982.01 228,983.09 228,985.59 L228,987 L240,987 L240,985.59 Z M230.48,985 C231.22,984.5 232.7,984 234,984 C235.3,984 236.77,984.49 237.52,985 L230.48,985 Z" id="contact_person_icon"></path>
        </g>
    </g>
</svg>