<?xml version="1.0" encoding="UTF-8"?>
<svg width="16px" height="18px" viewBox="0 0 16 18" version="1.1" xmlns="http://www.w3.org/2000/svg" xmlns:xlink="http://www.w3.org/1999/xlink">
    <title>location_icon</title>
    <g id="Page-1" stroke="none" stroke-width="1" fill="none" fill-rule="evenodd">
        <g id="12-Store-General-View-basic--layout" transform="translate(-220.000000, -431.000000)" fill="#211E1B" fill-rule="nonzero">
            <path d="M228.162193,440 C227.172193,440 226.362193,439.19 226.362193,438.2 C226.362193,437.21 227.172193,436.4 228.162193,436.4 C229.152193,436.4 229.962193,437.21 229.962193,438.2 C229.962193,439.19 229.152193,440 228.162193,440 Z M233.562193,438.38 C233.562193,435.113 231.177193,432.8 228.162193,432.8 C225.147193,432.8 222.762193,435.113 222.762193,438.38 C222.762193,440.486 224.517193,443.276 228.162193,446.606 C231.807193,443.276 233.562193,440.486 233.562193,438.38 Z M228.162193,431 C231.942193,431 235.362193,433.898 235.362193,438.38 C235.362193,441.368 232.959193,444.905 228.162193,449 C223.365193,444.905 220.962193,441.368 220.962193,438.38 C220.962193,433.898 224.382193,431 228.162193,431 Z" id="location_icon"></path>
        </g>
    </g>
</svg>