<?xml version="1.0" encoding="UTF-8"?>
<svg width="209px" height="40px" viewBox="0 0 209 40" version="1.1" xmlns="http://www.w3.org/2000/svg" xmlns:xlink="http://www.w3.org/1999/xlink">
    <title>Group</title>
    <g id="Page-1" stroke="none" stroke-width="1" fill="none" fill-rule="evenodd">
        <g id="Group" fill-rule="nonzero">
            <path d="M11.2813539,39.448022 L11.280342,16.339724 L17.3618124,16.3385465 L17.3618124,11.1867525 L11.280342,11.1903757 L11.2813539,8.96044157 C11.2813539,8.04047838 11.4650388,7.29726737 11.8324087,6.73080853 L12.0748729,6.41214351 C12.6038855,5.81723397 13.5121301,5.5197792 14.7996067,5.5197792 C15.3477402,5.5197792 15.8448846,5.56577734 16.2910399,5.65777368 C16.7371951,5.74977001 17.1068666,5.83869978 17.4000543,5.924563 L17.4000543,5.924563 L18.7767619,0.772769087 C18.3306067,0.625574975 17.6422529,0.459981601 16.7117005,0.27598896 C15.7811482,0.0919963202 14.7167492,0 13.5185037,0 C11.8231138,0 10.2806915,0.312787488 8.89123655,0.938362465 C7.50178168,1.56393744 6.39595405,2.50843299 5.57375365,3.77184912 C4.75155329,5.03526526 4.34045311,6.61760195 4.34045311,8.51885925 L4.34045311,8.51885925 L4.33853512,11.1903757 L0,11.1867525 L0,16.3385465 L4.33853512,16.339724 L4.34045311,39.448022 L11.2813539,39.448022 Z M34.4941736,40 C37.3623145,40 39.8480365,39.3928242 41.9513396,38.1784728 C44.0546429,36.9641214 45.6831096,35.265256 46.8367397,33.0818767 C47.9903695,30.8984974 48.5671847,28.3471327 48.5671847,25.4277829 C48.5671847,22.508433 47.9903695,19.9509353 46.8367397,17.7552898 C45.6831096,15.5596443 44.0546429,13.8546458 41.9513396,12.6402944 C39.8480365,11.425943 37.3623145,10.8187673 34.4941736,10.8187673 C31.6260328,10.8187673 29.1403108,11.425943 27.0370075,12.6402944 C24.9337042,13.8546458 23.3052376,15.5596443 22.1516076,17.7552898 C20.9979777,19.9509353 20.4211627,22.508433 20.4211627,25.4277829 C20.4211627,28.3471327 20.9979777,30.8984974 22.1516076,33.0818767 C23.3052376,35.265256 24.9337042,36.9641214 27.0370075,38.1784728 C29.1403108,39.3928242 31.6260328,40 34.4941736,40 Z M34.5324155,34.6642134 C32.939004,34.6642134 31.6164723,34.2502299 30.5648207,33.4222631 C29.5131691,32.5942962 28.7292106,31.4811407 28.2129453,30.0827967 C27.6966799,28.6844526 27.4385472,27.1266483 27.4385472,25.4093836 C27.4385472,23.6798528 27.6966799,22.1128488 28.2129453,20.7083716 C28.7292106,19.3038945 29.5131691,18.1846059 30.5648207,17.350506 C31.6164723,16.516406 32.939004,16.099356 34.5324155,16.099356 C36.0875852,16.099356 37.387809,16.516406 38.433087,17.350506 C39.478365,18.1846059 40.2591367,19.3038945 40.775402,20.7083716 C41.2916674,22.1128488 41.5498,23.6798528 41.5498,25.4093836 C41.5498,27.1266483 41.2916674,28.6844526 40.775402,30.0827967 C40.2591367,31.4811407 39.478365,32.5942962 38.433087,33.4222631 C37.387809,34.2502299 36.0875852,34.6642134 34.5324155,34.6642134 Z M67.2292209,40 C70.0973618,40 72.5830837,39.3928242 74.6863869,38.1784728 C76.7896902,36.9641214 78.4181569,35.265256 79.571787,33.0818767 C80.7254168,30.8984974 81.302232,28.3471327 81.302232,25.4277829 C81.302232,22.508433 80.7254168,19.9509353 79.571787,17.7552898 C78.4181569,15.5596443 76.7896902,13.8546458 74.6863869,12.6402944 C72.5830837,11.425943 70.0973618,10.8187673 67.2292209,10.8187673 C64.3610801,10.8187673 61.8753582,11.425943 59.772055,12.6402944 C57.6687517,13.8546458 56.040285,15.5596443 54.8866548,17.7552898 C53.7330247,19.9509353 53.1562099,22.508433 53.1562099,25.4277829 C53.1562099,28.3471327 53.7330247,30.8984974 54.8866548,33.0818767 C56.040285,35.265256 57.6687517,36.9641214 59.772055,38.1784728 C61.8753582,39.3928242 64.3610801,40 67.2292209,40 Z M67.2674626,34.6642134 C65.6740512,34.6642134 64.3515198,34.2502299 63.2998679,33.4222631 C62.2482165,32.5942962 61.4642579,31.4811407 60.9479925,30.0827967 C60.4317271,28.6844526 60.1735946,27.1266483 60.1735946,25.4093836 C60.1735946,23.6798528 60.4317271,22.1128488 60.9479925,20.7083716 C61.4642579,19.3038945 62.2482165,18.1846059 63.2998679,17.350506 C64.3515198,16.516406 65.6740512,16.099356 67.2674626,16.099356 C68.8226323,16.099356 70.1228564,16.516406 71.1681343,17.350506 C72.2134122,18.1846059 72.994184,19.3038945 73.5104494,20.7083716 C74.0267148,22.1128488 74.2848473,23.6798528 74.2848473,25.4093836 C74.2848473,27.1266483 74.0267148,28.6844526 73.5104494,30.0827967 C72.994184,31.4811407 72.2134122,32.5942962 71.1681343,33.4222631 C70.1228564,34.2502299 68.8226323,34.6642134 67.2674626,34.6642134 Z M98.0521745,39.9448023 C99.7348171,39.9448023 101.130645,39.6749463 102.23966,39.1352346 C103.348675,38.5955228 104.240985,37.9423489 104.916591,37.1757129 C105.592198,36.4090769 106.108463,35.682306 106.465388,34.9954001 L106.465388,34.9954001 L106.886048,34.9954001 L106.886048,39.448022 L113.693102,39.448022 L113.693102,1.76632934 L106.752201,1.76632934 L106.752201,15.8601656 L106.465388,15.8601656 C106.108463,15.1732597 105.604945,14.4403557 104.954833,13.6614535 C104.304721,12.8825513 103.425158,12.2140448 102.316144,11.6559337 C101.207129,11.0978228 99.7921798,10.8187673 98.0712951,10.8187673 C95.8150244,10.8187673 93.7690838,11.3738117 91.9334738,12.4839006 C90.0978637,13.5939896 88.6414855,15.2315241 87.5643395,17.3965041 C86.4871931,19.5614842 85.9486198,22.2140447 85.9486198,25.3541858 C85.9486198,28.4575284 86.4776327,31.0947562 87.5356581,33.2658693 C88.5936831,35.4369825 90.0341275,37.0929162 91.85699,38.2336706 C93.679853,39.374425 95.7449142,39.9448023 98.0521745,39.9448023 Z M99.9833893,34.4802208 C98.4664612,34.4802208 97.1885454,34.0846366 96.149641,33.2934682 C95.1107367,32.5022999 94.326778,31.4167433 93.7977656,30.0367985 C93.2687527,28.6568537 93.0042466,27.0837166 93.0042466,25.3173873 C93.0042466,23.5633241 93.2655659,22.0055198 93.7882048,20.6439742 C94.3108438,19.2824287 95.0884289,18.2152714 96.1209597,17.4425023 C97.1534901,16.6697332 98.4409666,16.2833487 99.9833893,16.2833487 C101.474822,16.2833487 102.733618,16.657467 103.759774,17.4057038 C104.785932,18.1539405 105.563516,19.2026986 106.092529,20.5519779 C106.621542,21.9012573 106.886048,23.4897271 106.886048,25.3173873 C106.886048,27.1450475 106.618355,28.7457835 106.082969,30.1195952 C105.547582,31.4934069 104.763624,32.5636308 103.731093,33.3302668 C102.698562,34.0969028 101.449328,34.4802208 99.9833893,34.4802208 Z" id="food" fill="#000000"></path>
            <path d="M137.020647,39.9448023 C139.327908,39.9448023 141.392969,39.374425 143.215832,38.2336706 C145.038694,37.0929162 146.479139,35.4369825 147.537164,33.2658693 C148.595189,31.0947562 149.124202,28.4575284 149.124202,25.3541858 C149.124202,22.2140447 148.585629,19.5614842 147.508482,17.3965041 C146.431336,15.2315241 144.978145,13.5939896 143.148908,12.4839006 C141.319672,11.3738117 139.270545,10.8187673 137.001527,10.8187673 C135.280642,10.8187673 133.865693,11.0978228 132.756678,11.6559337 C131.647664,12.2140448 130.768101,12.8825513 130.117989,13.6614535 C129.467877,14.4403557 128.964359,15.1732597 128.607434,15.8601656 L128.607434,15.8601656 L128.320621,15.8601656 L128.320621,1.76632934 L121.398841,1.76632934 L121.398841,39.448022 L128.205895,39.448022 L128.205895,34.9954001 L128.607434,34.9954001 C128.977106,35.682306 129.496558,36.4090769 130.165791,37.1757129 C130.835024,37.9423489 131.724147,38.5955228 132.833162,39.1352346 C133.942176,39.6749463 135.338005,39.9448023 137.020647,39.9448023 Z M135.089433,34.4802208 C133.623494,34.4802208 132.377446,34.0969028 131.351289,33.3302668 C130.325132,32.5636308 129.541174,31.4934069 128.999414,30.1195952 C128.457654,28.7457835 128.186774,27.1450475 128.186774,25.3173873 C128.186774,23.4897271 128.45128,21.9012573 128.980293,20.5519779 C129.509306,19.2026986 130.290077,18.1539405 131.322608,17.4057038 C132.355139,16.657467 133.610747,16.2833487 135.089433,16.2833487 C136.631855,16.2833487 137.919332,16.6697332 138.951862,17.4425023 C139.984393,18.2152714 140.761978,19.2824287 141.284617,20.6439742 C141.807256,22.0055198 142.068575,23.5633241 142.068575,25.3173873 C142.068575,27.0837166 141.804069,28.6568537 141.275056,30.0367985 C140.746044,31.4167433 139.965272,32.5022999 138.932742,33.2934682 C137.900211,34.0846366 136.619108,34.4802208 135.089433,34.4802208 Z M164.822493,39.8160073 C167.027774,39.8160073 168.885692,39.3130941 170.396246,38.3072677 C171.9068,37.3014413 172.993507,36.0073597 173.656366,34.425023 L173.656366,34.425023 L173.962301,34.425023 L173.962301,39.448022 L180.673751,39.448022 L180.673751,11.1867525 L173.751971,11.1867525 L173.751971,27.5620975 C173.751971,28.9972401 173.442849,30.1901257 172.824605,31.1407543 C172.206362,32.091383 171.419217,32.8058877 170.46317,33.2842686 C169.507123,33.7626495 168.519207,34.0018399 167.499424,34.0018399 C165.842276,34.0018399 164.50381,33.4743943 163.484027,32.4195032 C162.464244,31.364612 161.954352,29.9417356 161.954352,28.150874 L161.954352,28.150874 L161.954352,11.1867525 L155.032572,11.1867525 L155.032572,29.1812327 C155.032572,31.4382091 155.446859,33.3609322 156.275433,34.949402 C157.104007,36.5378718 158.25445,37.7460901 159.726762,38.574057 C161.199075,39.4020239 162.897651,39.8160073 164.822493,39.8160073 Z M194.70852,39.448022 L194.70852,1.76632934 L187.78674,1.76632934 L187.78674,39.448022 L194.70852,39.448022 Z M208.75,39.448022 L208.75,1.76632934 L201.82822,1.76632934 L201.82822,39.448022 L208.75,39.448022 Z" id="bul" fill="#CF3031"></path>
        </g>
    </g>
</svg>