<?xml version="1.0" encoding="UTF-8"?>
<svg width="208px" height="43px" viewBox="0 0 208 43" version="1.1" xmlns="http://www.w3.org/2000/svg" xmlns:xlink="http://www.w3.org/1999/xlink">
    <title>logo</title>
    <g id="Page-1" stroke="none" stroke-width="1" fill="none" fill-rule="evenodd">
        <g id="logo" fill-rule="nonzero">
            <path d="M12.3012845,11.1344359 L12.3012845,12.9019158 L21.1226158,12.9019158 L21.1226158,18.5573932 L12.3012845,18.5573932 L12.3012845,42 L5.57960296,42 L5.57960296,18.5551007 L0,18.5551007 L0,12.8996234 L5.57960296,12.8996234 L5.57960296,11.1321434 C5.57960296,3.71147863 10.3791359,0 16.4398599,0 C19.1397431,0 21.5406773,0.765678729 24,2.47355494 L21.4192293,7.12723105 C19.7983651,6.12542983 18.597898,5.65547732 16.9793694,5.65547732 C14.2210977,5.65547732 12.3012845,7.30604225 12.3012845,11.1344359 Z" id="Path" fill="#211E1B"></path>
            <path d="M21,28 C21,19.3946297 27.0580502,13 36.5297637,13 C45.9419498,13 52,19.3946297 52,28 C52,36.6031076 45.9419498,43 36.5297637,43 C27.0580502,43 21,36.6053703 21,28 Z M45.4107829,28 C45.4107829,22.9992457 41.9398818,18.9307588 36.5274742,18.9307588 C31.0578287,18.9307588 27.5869276,22.9992457 27.5869276,28 C27.5869276,33.0007543 31.0578287,37.0692412 36.5274742,37.0692412 C41.9398818,37.0692412 45.4107829,33.0007543 45.4107829,28 Z" id="Shape" fill="#211E1B"></path>
            <path d="M54,28 C54,19.3946297 60.0580502,13 69.5297637,13 C78.9419498,13 85,19.3946297 85,28 C85,36.6031076 78.9419498,43 69.5297637,43 C60.0580502,43 54,36.6053703 54,28 Z M78.4107829,28 C78.4107829,22.9992457 74.9398818,18.9307588 69.5274742,18.9307588 C64.0578287,18.9307588 60.5869276,22.9992457 60.5869276,28 C60.5869276,33.0007543 64.0578287,37.0692412 69.5274742,37.0692412 C74.9398818,37.0692412 78.4107829,33.0007543 78.4107829,28 Z" id="Shape" fill="#211E1B"></path>
            <path d="M117,1.0022991 L117,42.3516532 L111.106926,42.3516532 L111.047284,38.4523757 C108.808421,41.2871688 104.917937,43 100.320926,43 C92.0697055,43 86,36.974053 86,27.7592511 C86,18.5444493 92.0697055,12.5185023 100.320926,12.5185023 C104.505032,12.5185023 108.0996,13.9370484 110.398106,16.2982264 L110.398106,1 L117,1 L117,1.0022991 Z M110.4004,27.7592511 C110.4004,22.3241734 106.746189,18.5444493 101.5,18.5444493 C96.2538109,18.5444493 92.5996004,22.3241734 92.5996004,27.7592511 C92.5996004,33.1943289 96.2538109,36.974053 101.5,36.974053 C106.746189,36.974053 110.4004,33.1943289 110.4004,27.7592511 Z" id="Shape" fill="#211E1B"></path>
            <path d="M153,27.7584168 C153,36.9737231 146.930295,43 138.679074,43 C134.082063,43 130.191579,41.2870751 127.952716,38.4521268 L127.893074,42.3516177 L122,42.3516177 L122,1 L128.601894,1 L128.601894,16.2990639 C130.9004,13.9354574 134.494968,12.5191329 138.679074,12.5191329 C146.930295,12.5191329 153,18.5431105 153,27.7584168 Z M146.398106,27.7584168 C146.398106,22.3230416 142.743895,18.5431105 137.5,18.5431105 C132.313453,18.5431105 128.5996,22.3230416 128.5996,27.7584168 C128.5996,33.1937921 132.313453,36.9737231 137.5,36.9737231 C142.743895,36.9737231 146.398106,33.1937921 146.398106,27.7584168 Z" id="Shape" fill="#DB0D15"></path>
            <path d="M184,14 L184,42.4244343 L178.130396,42.4244343 L178.070991,38.7426056 C175.605712,41.5622056 172.201387,43 168.209874,43 C160.814035,43 156,37.8221484 156,29.70824 L156,14 L162.575602,14 L162.575602,29.3051201 C162.575602,34.3105259 165.15969,37.1883543 169.384251,37.1883543 C174.198286,37.1883543 177.426683,33.7349602 177.426683,28.9602286 L177.426683,14 L184,14 Z" id="Path" fill="#DB0D15"></path>
            <polygon id="Path" fill="#DB0D15" points="189 0 195 0 195 42 189 42"></polygon>
            <polygon id="Path" fill="#DB0D15" points="202 0 208 0 208 42 202 42"></polygon>
        </g>
    </g>
</svg>