<?xml version="1.0" encoding="UTF-8"?>
<svg width="117px" height="24px" viewBox="0 0 117 24" version="1.1" xmlns="http://www.w3.org/2000/svg" xmlns:xlink="http://www.w3.org/1999/xlink">
    <title>logo</title>
    <g id="Page-1" stroke="none" stroke-width="1" fill="none" fill-rule="evenodd">
        <g id="logo" fill-rule="nonzero">
            <path d="M7.02930546,6.3625348 L7.02930546,7.37252333 L12.0700662,7.37252333 L12.0700662,10.6042247 L7.02930546,10.6042247 L7.02930546,24 L3.18834455,24 L3.18834455,10.6029147 L0,10.6029147 L0,7.37121336 L3.18834455,7.37121336 L3.18834455,6.36122482 C3.18834455,2.12084493 5.93093477,0 9.39420564,0 C10.9369961,0 12.3089585,0.437530702 13.7142857,1.41345996 L12.2395596,4.07270346 C11.3133515,3.50024562 10.6273703,3.23170133 9.7024968,3.23170133 C8.12634154,3.23170133 7.02930546,4.17488128 7.02930546,6.3625348 Z" id="Path" fill="#211E1B"></path>
            <path d="M11.4285714,15.4285714 C11.4285714,10.5112169 14.7786453,6.85714286 20.0164592,6.85714286 C25.2213547,6.85714286 28.5714286,10.5112169 28.5714286,15.4285714 C28.5714286,20.3446329 25.2213547,24 20.0164592,24 C14.7786453,24 11.4285714,20.3459259 11.4285714,15.4285714 Z M24.9276219,15.4285714 C24.9276219,12.5709976 23.0082296,10.2461479 20.0151931,10.2461479 C16.9905043,10.2461479 15.071112,12.5709976 15.071112,15.4285714 C15.071112,18.2861453 16.9905043,20.610995 20.0151931,20.610995 C23.0082296,20.610995 24.9276219,18.2861453 24.9276219,15.4285714 Z" id="Shape" fill="#211E1B"></path>
            <path d="M29.7142857,15.4285714 C29.7142857,10.5112169 33.0643596,6.85714286 38.3021735,6.85714286 C43.507069,6.85714286 46.8571429,10.5112169 46.8571429,15.4285714 C46.8571429,20.3446329 43.507069,24 38.3021735,24 C33.0643596,24 29.7142857,20.3459259 29.7142857,15.4285714 Z M43.2133361,15.4285714 C43.2133361,12.5709976 41.2939439,10.2461479 38.3009074,10.2461479 C35.2762186,10.2461479 33.3568263,12.5709976 33.3568263,15.4285714 C33.3568263,18.2861453 35.2762186,20.610995 38.3009074,20.610995 C41.2939439,20.610995 43.2133361,18.2861453 43.2133361,15.4285714 Z" id="Shape" fill="#211E1B"></path>
            <path d="M65.1428571,0.00131377272 L65.1428571,23.6295161 L61.8840145,23.6295161 L61.8510328,21.4013576 C60.6129516,23.0212393 58.461532,24 55.9194063,24 C51.3565192,24 48,20.5566017 48,15.2910007 C48,10.0253996 51.3565192,6.58200131 55.9194063,6.58200131 C58.2331973,6.58200131 60.2209772,7.39259908 61.49204,8.74184366 L61.49204,0 L65.1428571,0 L65.1428571,0.00131377272 Z M61.4933085,15.2910007 C61.4933085,12.185242 59.472547,10.0253996 56.5714286,10.0253996 C53.6703102,10.0253996 51.6495486,12.185242 51.6495486,15.2910007 C51.6495486,18.3967594 53.6703102,20.5566017 56.5714286,20.5566017 C59.472547,20.5566017 61.4933085,18.3967594 61.4933085,15.2910007 Z" id="Shape" fill="#211E1B"></path>
            <path d="M85.7142857,15.2905239 C85.7142857,20.5564132 82.3577665,24 77.7948794,24 C75.2527538,24 73.1013341,23.0211857 71.8632529,21.4012153 L71.8302713,23.6294958 L68.5714286,23.6294958 L68.5714286,0 L72.2222457,0 L72.2222457,8.74232222 C73.4933085,7.39168993 75.4810884,6.58236164 77.7948794,6.58236164 C82.3577665,6.58236164 85.7142857,10.0246346 85.7142857,15.2905239 Z M82.0634686,15.2905239 C82.0634686,12.1845952 80.042707,10.0246346 77.1428571,10.0246346 C74.2747204,10.0246346 72.2209772,12.1845952 72.2209772,15.2905239 C72.2209772,18.3964526 74.2747204,20.5564132 77.1428571,20.5564132 C80.042707,20.5564132 82.0634686,18.3964526 82.0634686,15.2905239 Z" id="Shape" fill="#DB0D15"></path>
            <path d="M102.857143,8 L102.857143,23.6824465 L99.5030833,23.6824465 L99.469138,21.6510927 C98.0604068,23.2067341 96.1150784,24 93.8342134,24 C89.6080201,24 86.8571429,21.1432543 86.8571429,16.6666152 L86.8571429,8 L90.6146296,8 L90.6146296,16.4442042 C90.6146296,19.2058074 92.0912514,20.7935748 94.5052865,20.7935748 C97.2561637,20.7935748 99.1009617,18.8882539 99.1009617,16.2539192 L99.1009617,8 L102.857143,8 Z" id="Path" fill="#DB0D15"></path>
            <polygon id="Path" fill="#DB0D15" points="105.142857 0 108.571429 0 108.571429 24 105.142857 24"></polygon>
            <polygon id="Path" fill="#DB0D15" points="113.142857 0 116.571429 0 116.571429 24 113.142857 24"></polygon>
        </g>
    </g>
</svg>