<?xml version="1.0" encoding="UTF-8"?>
<svg width="20px" height="18px" viewBox="0 0 20 18" version="1.1" xmlns="http://www.w3.org/2000/svg" xmlns:xlink="http://www.w3.org/1999/xlink">
    <title>store_icon_breadcrum</title>
    <g id="Page-1" stroke="none" stroke-width="1" fill="none" fill-rule="evenodd">
        <g id="12-Store-General-View-basic--layout" transform="translate(-210.000000, -125.000000)" fill="#BCBDC7" fill-rule="nonzero">
            <path d="M229.9,130.89 L228.85,126.52 C228.63,125.62 227.85,125 226.94,125 L213.05,125 C212.15,125 211.36,125.63 211.15,126.52 L210.1,130.89 C209.86,131.91 210.08,132.95 210.72,133.77 C210.8,133.88 210.91,133.96 211,134.06 L211,141 C211,142.1 211.9,143 213,143 L227,143 C228.1,143 229,142.1 229,141 L229,134.06 C229.09,133.97 229.2,133.88 229.28,133.78 C229.92,132.96 230.15,131.91 229.9,130.89 Z M226.91,126.99 L227.96,131.36 C228.06,131.78 227.97,132.2 227.71,132.53 C227.57,132.71 227.27,133 226.77,133 C226.16,133 225.63,132.51 225.56,131.86 L224.98,127 L226.91,126.99 Z M221,127 L222.96,127 L223.5,131.52 C223.55,131.91 223.43,132.3 223.17,132.59 C222.95,132.85 222.63,133 222.22,133 C221.55,133 221,132.41 221,131.69 L221,127 Z M216.49,131.52 L217.04,127 L219,127 L219,131.69 C219,132.41 218.45,133 217.71,133 C217.37,133 217.06,132.85 216.82,132.59 C216.57,132.3 216.45,131.91 216.49,131.52 Z M212.04,131.36 L213.05,127 L215.02,127 L214.44,131.86 C214.36,132.51 213.84,133 213.23,133 C212.74,133 212.43,132.71 212.3,132.53 C212.03,132.21 211.94,131.78 212.04,131.36 Z M213,141 L213,134.97 C213.08,134.98 213.15,135 213.23,135 C214.1,135 214.89,134.64 215.47,134.05 C216.07,134.65 216.87,135 217.78,135 C218.65,135 219.43,134.64 220.01,134.07 C220.6,134.64 221.4,135 222.3,135 C223.14,135 223.94,134.65 224.54,134.05 C225.12,134.64 225.91,135 226.78,135 C226.86,135 226.93,134.98 227.01,134.97 L227.01,141 L213,141 Z" id="store_icon_breadcrum"></path>
        </g>
    </g>
</svg>